<svg xmlns="http://www.w3.org/2000/svg" version="1.1" viewBox="-5.0 -10.0 110.0 135.0">
 <path d="m34.375 39.062v-3.125c0-0.86328 0.69922-1.5625 1.5625-1.5625s1.5625 0.69922 1.5625 1.5625v3.125c0 0.86328-0.69922 1.5625-1.5625 1.5625s-1.5625-0.69922-1.5625-1.5625zm14.062 1.5625c0.86328 0 1.5625-0.69922 1.5625-1.5625v-3.125c0-0.86328-0.69922-1.5625-1.5625-1.5625s-1.5625 0.69922-1.5625 1.5625v3.125c0 0.86328 0.69922 1.5625 1.5625 1.5625zm-14.062 6.25v-1.5625c0-0.86328 0.69922-1.5625 1.5625-1.5625h12.5c0.86328 0 1.5625 0.69922 1.5625 1.5625v1.5625c0 4.3086-3.5039 7.8125-7.8125 7.8125s-7.8125-3.5039-7.8125-7.8125zm3.125 0c0 2.5859 2.1016 4.6875 4.6875 4.6875s4.6875-2.1016 4.6875-4.6875zm62.418 45.961c0.15625 1.8203-0.46484 3.6406-1.707 4.9961-1.2656 1.3789-3.0742 2.1719-4.9609 2.1719-1.9492 0-3.8008-0.83594-5.082-2.3008l-3.7969-4.3906v5.1289c0 0.86328-0.69922 1.5625-1.5625 1.5625l-81.246-0.003906c-0.86328 0-1.5625-0.69922-1.5625-1.5625v-17.047c0-6.4336 3.8594-12.125 9.8281-14.5l20.535-8.2188c-1.0039-0.72266-1.9453-1.5312-2.8008-2.4219h-8.8125c-0.86328 0-1.5625-0.69922-1.5625-1.5625v-4.8438c-3.5625-0.72656-6.25-3.8828-6.25-7.6562v-6.25c0-3.1953 1.9336-5.9414 4.6875-7.1484v-2.2266c0-14.648 11.914-26.562 26.562-26.562s26.562 11.914 26.562 26.562v2.2266c2.7539 1.207 4.6875 3.9531 4.6875 7.1484v6.25c0 4.3086-3.5039 7.8125-7.8125 7.8125h-4.6875-0.003906c-1.4609 3.4961-3.8828 6.4844-6.9219 8.6719l20.539 8.2227c1.1914 0.47656 2.2891 1.1172 3.3125 1.8555h2.1328c1.8555-1.0234 3.9648-1.5625 6.1328-1.5625 6.9883 0 12.676 5.6094 12.676 12.5l1.1211 13.148zm-40.543-66.273c0-9.4766-7.7109-17.188-17.188-17.188s-17.188 7.7109-17.188 17.188v1.5625h4.0586c6.0977 0 12.078-2.0977 16.844-5.9062 0.62109-0.49609 1.5195-0.44531 2.082 0.11719l0.72656 0.72656c2.8945 2.8945 6.6367 4.6328 10.668 4.9883v-1.4883zm6.25 4.6875h-3.125v10.938c0 1.6172-0.21094 3.1797-0.56641 4.6875h3.6914c2.5859 0 4.6875-2.1016 4.6875-4.6875v-6.25c0-2.5859-2.1016-4.6875-4.6875-4.6875zm-46.875-3.125h3.125v-1.5625c0-11.199 9.1133-20.312 20.312-20.312s20.312 9.1133 20.312 20.312v1.5625h3.125v-1.5625c0-12.926-10.516-23.438-23.438-23.438s-23.438 10.512-23.438 23.438zm0 18.75h3.6914c-0.35938-1.5078-0.56641-3.0703-0.56641-4.6875v-10.938h-3.125c-2.5859 0-4.6875 2.1016-4.6875 4.6875v6.25c0 2.5859 2.1016 4.6875 4.6875 4.6875zm6.3477 6.25c-0.63672-0.98828-1.1992-2.0312-1.6562-3.125h-0.003906-3.125v3.125zm9.2773 1.5625c0 0.86328-0.69922 1.5625-1.5625 1.5625h-0.47656c2.793 1.9609 6.1875 3.125 9.8516 3.125 9.4766 0 17.188-7.7109 17.188-17.188v-10.996c-4.7539-0.35547-9.1836-2.3438-12.637-5.6836-5.1172 3.7109-11.344 5.7422-17.68 5.7422h-4.0586v10.938c0 4.1523 1.4805 7.9648 3.9414 10.938h3.8711c0.86328 0 1.5625 0.69922 1.5625 1.5625zm7.8125 7.8125c-2.7031 0-5.2773-0.53906-7.6367-1.5039 0.75 3.5312 3.8867 6.1914 7.6367 6.1914s6.8906-2.6602 7.6367-6.1914c-2.3594 0.96094-4.9375 1.5039-7.6367 1.5039zm-39.062 34.375h12.5v-4.6875c0-0.86328 0.69922-1.5625 1.5625-1.5625s1.5625 0.69922 1.5625 1.5625v4.6875h30.766c-0.75391-1.1992-1.1211-2.6172-1-4.0391l1.125-13.281c-0.003906-6.7578 5.6797-12.367 12.668-12.367 2.1641 0 4.2773 0.53906 6.1328 1.5625h2.332l-17.879-7.1562c-1.0273 4.9688-5.4414 8.7188-10.711 8.7188-5.2695 0-9.6836-3.75-10.711-8.7188l-20.488 8.2031c-4.7773 1.8984-7.8633 6.4492-7.8633 11.594v15.484zm78.125 0v-5.6797c-1.9609-0.80469-3.6836-2.0586-5.0117-3.6953h-4.0391c-1.7266 2.1289-4.1133 3.6328-6.8359 4.3008l-4.3828 5.0742zm15.555-3.7734-1.125-13.281c-0.003907-5.3008-4.2891-9.5078-9.5547-9.5078-1.75 0-3.4492 0.46484-4.9102 1.3398-0.24219 0.14844-0.51953 0.22266-0.80469 0.22266h-12.383c-0.28125 0-0.5625-0.078125-0.80469-0.22266-1.4609-0.875-3.1602-1.3398-4.9102-1.3398-5.2656 0-9.5508 4.207-9.5508 9.375l-1.1328 13.414c-0.082031 0.96875 0.23438 1.8945 0.89453 2.6172 1.375 1.4961 4.043 1.4648 5.3867-0.074219l5.4219-6.2773c0.22656-0.26172 0.53125-0.4375 0.87109-0.50781 2.4375-0.49609 4.5469-1.8516 5.9414-3.8242 0.29297-0.41406 0.76953-0.66016 1.2773-0.66016h5.5859c0.50781 0 0.98438 0.24609 1.2773 0.66016 1.3945 1.9688 3.5039 3.3281 5.9414 3.8242 0.33984 0.070313 0.64453 0.25 0.87109 0.50781l5.4297 6.2812c1.332 1.5273 4.0078 1.5625 5.3828 0.066406 0.66016-0.71875 0.97656-1.6484 0.89453-2.6133zm-34.305-19.664c-0.86328 0-1.5625 0.69922-1.5625 1.5625s0.69922 1.5625 1.5625 1.5625 1.5625-0.69922 1.5625-1.5625-0.69922-1.5625-1.5625-1.5625zm0 9.375c-0.86328 0-1.5625 0.69922-1.5625 1.5625s0.69922 1.5625 1.5625 1.5625 1.5625-0.69922 1.5625-1.5625-0.69922-1.5625-1.5625-1.5625zm-4.6875-4.6875c-0.86328 0-1.5625 0.69922-1.5625 1.5625s0.69922 1.5625 1.5625 1.5625 1.5625-0.69922 1.5625-1.5625-0.69922-1.5625-1.5625-1.5625zm9.375 0c-0.86328 0-1.5625 0.69922-1.5625 1.5625s0.69922 1.5625 1.5625 1.5625 1.5625-0.69922 1.5625-1.5625-0.69922-1.5625-1.5625-1.5625zm18.75-4.6875c-0.86328 0-1.5625 0.69922-1.5625 1.5625s0.69922 1.5625 1.5625 1.5625 1.5625-0.69922 1.5625-1.5625-0.69922-1.5625-1.5625-1.5625zm0 9.375c-0.86328 0-1.5625 0.69922-1.5625 1.5625s0.69922 1.5625 1.5625 1.5625 1.5625-0.69922 1.5625-1.5625-0.69922-1.5625-1.5625-1.5625zm4.6875-4.6875c-0.86328 0-1.5625 0.69922-1.5625 1.5625s0.69922 1.5625 1.5625 1.5625 1.5625-0.69922 1.5625-1.5625-0.69922-1.5625-1.5625-1.5625zm-9.375 0c-0.86328 0-1.5625 0.69922-1.5625 1.5625s0.69922 1.5625 1.5625 1.5625 1.5625-0.69922 1.5625-1.5625-0.69922-1.5625-1.5625-1.5625z"/>
<text x="0.0" y="117.5" font-size="5.0" font-weight="bold" font-family="Arbeit Regular, Helvetica, Arial-Unicode, Arial, Sans-serif" fill="#000000">Created by Kmg Design</text><text x="0.0" y="122.5" font-size="5.0" font-weight="bold" font-family="Arbeit Regular, Helvetica, Arial-Unicode, Arial, Sans-serif" fill="#000000">from Noun Project</text></svg>