<svg xmlns="http://www.w3.org/2000/svg" version="1.1" viewBox="-5.0 -10.0 110.0 135.0">
 <path d="m86.402 43.402c-0.28125 0.51172-0.82422 0.83594-1.4883 0.89062-0.074218 0.007812-0.14453 0.007812-0.21875 0.007812-0.53516 0-1.1055-0.16016-1.6289-0.46484-0.23438-0.13672-0.34375-0.4375-0.22266-0.6875 0.12891-0.26172 0.4375-0.35547 0.68359-0.21484 0.42578 0.25 0.90234 0.375 1.3086 0.33984 0.19922-0.015626 0.55469-0.089844 0.71484-0.38281 0.27344-0.49219-0.1875-1.3398-0.98047-1.8164-0.22656-0.13281-0.32812-0.42578-0.21484-0.66797 0.125-0.26953 0.44141-0.37109 0.6875-0.22266 1.3242 0.78125 1.9258 2.1953 1.3633 3.2148zm-69.918-0.38281c-0.81641 0.44922-1.7617 0.40234-2.0234-0.10156-0.15234-0.29688-0.019532-0.64844 0.070312-0.83203 0.1875-0.36719 0.53516-0.71484 0.96094-0.95313 0.22656-0.12891 0.33984-0.41406 0.23437-0.66016-0.11719-0.27344-0.42969-0.38281-0.67969-0.24609-0.61328 0.33594-1.1055 0.83203-1.3867 1.3906-0.30859 0.61328-0.33594 1.2617-0.066406 1.7812 0.32031 0.625 0.98828 0.95703 1.7617 0.95703 0.49609 0 1.0391-0.13672 1.5625-0.42188 0.23828-0.12891 0.35547-0.42578 0.24219-0.67969-0.12109-0.26562-0.42969-0.37109-0.67578-0.23438zm39.824 11.168c-0.33984-0.26562-0.82031-0.19531-1.0742 0.15625-1.0469 1.4336-2.7773 2.293-4.6289 2.293-1.8516 0-3.582-0.85547-4.6289-2.293-0.25391-0.35156-0.73828-0.41797-1.0742-0.15625-0.33984 0.26562-0.40625 0.76172-0.14844 1.1133 1.3359 1.8281 3.5234 2.9219 5.8516 2.9219s4.5156-1.0938 5.8516-2.9219c0.25391-0.35156 0.1875-0.84766-0.14844-1.1133zm33.684-7.8906c-0.61719 1.1211-1.5039 1.9727-2.5039 2.4961 0 0.0625-0.011719 0.12109-0.035156 0.18359-2.9531 7.7773-7.9023 15.434-14.582 22.629-0.24609 0.26562-0.42578 0.57812-0.53516 0.92188-0.10156 0.32422-0.14063 0.66797-0.11328 1.0117 0.027344 0.32422 0.046875 0.65234 0.058594 0.98047 0.007812 0.23828 0.011719 0.47656 0.011719 0.71875v24.762s0 0.003906-0.003907 0.003906l-43.777-0.003906s-0.003907 0-0.003907-0.003906v-24.77c0-0.16016-0.019531-0.3125-0.054687-0.46484-0.035156-0.15234-0.085937-0.29688-0.15625-0.43359-0.078125-0.16016-0.18359-0.3125-0.30469-0.44531-7.3398-7.9531-12.652-16.414-15.609-24.953-0.019531-0.058594-0.03125-0.12109-0.027343-0.18359-0.98047-0.55078-1.8438-1.4297-2.4297-2.5703-1.457-2.8359-0.64453-6.2344 1.8086-7.582 0.68359-0.375 1.4219-0.55469 2.1641-0.55469 1.9219 0 3.8672 1.1953 4.918 3.2461 0.69531 1.3516 0.87109 2.832 0.60547 4.1562 1.3203 2.0664 2.7891 4.1367 4.3984 6.1953 0.046876-1.1914 0.11719-2.3125 0.21094-3.3984 0.21484-2.5039 0.54297-4.7695 1.0117-6.918 0.79688-3.6719 2.0352-7.0039 3.6797-9.9023 0.007813-0.015625 0.015625-0.03125 0.027344-0.046875-0.09375-0.074219-0.18359-0.14844-0.27734-0.22656-0.51562-0.4375-1.0234-0.98828-1.0664-1.6719-0.03125-0.51172 0.20312-0.99609 0.42969-1.4492 1.2969-2.582 2.5898-5.1641 3.8867-7.7461 0.054688-0.11328 0.11328-0.22266 0.17188-0.33594l-11.812-5.9805 0.089844-1.3008c-0.003906-0.035156-0.007813-0.070312-0.007813-0.10938 0.011719-0.20312 0.13672-0.38281 0.32031-0.45312l31.633-12.066c0.12891-0.050781 0.27344-0.039062 0.39453 0.027344l29.723 15.906c0.16797 0.089844 0.26953 0.26953 0.26562 0.46484v0.023437 0.003906l-0.09375 1.3359-0.019531 0.007812-4.9688 1.7734c-0.17578-0.44531-0.39062-0.87891-0.65625-1.293l5.25-1.8633-29.727-15.91-31.637 12.062 12.016 6.0703 0.79297 0.40234 6.2227 3.1445 1.7812 0.89844 0.12109 0.0625 1.0352 0.52344 0.097656 0.050781 7.7188 3.9023 9.4297-3.3477 0.054688-0.019532 1.1992-0.42578 0.082031-0.027343 1.4805-0.52734 5.0781-1.8008 0.94531-0.33594 5.2656-1.8672c0.35156 0.35547 0.60156 0.77344 0.80078 1.2461l-5.5352 1.9727c0.003906 0.007812 0.003906 0.015624 0.007813 0.023437 0.73437 2.1484 0.78906 2.4102 1.2734 3.7227 0.61328 1.6641 1.0977 3.3789 1.7305 5.0352 0.023437 0.058593 0.070312 0.18359 0.097656 0.34766 0.10938 0.18359 0.21875 0.37109 0.32422 0.5625l0.066406 0.12109c0.64844 1.1719 1.2422 2.4375 1.7656 3.7695 0.070312 0.17188 0.13672 0.34766 0.20312 0.52344-0.042969 0.52344 0.10547 1.0469 0.42188 1.4648 0.046875 0.058594 0.09375 0.11719 0.14844 0.17188 0.25781 0.80078 0.49219 1.6172 0.70312 2.4492 0.10156 0.41016 0.20313 0.83594 0.29297 1.2617 0.46875 2.1523 0.79688 4.4141 1.0117 6.918 0.019531 0.24609 0.042969 0.49609 0.058594 0.74609 1.1367-1.4414 2.1992-2.8906 3.1875-4.3398-0.23047-1.332-0.007813-2.8008 0.72266-4.1328 1.082-1.9648 2.9883-3.0938 4.8633-3.0938 0.78906 0 1.5742 0.19922 2.2891 0.625 2.4141 1.4258 3.1289 4.8438 1.5898 7.6367zm-17.746 4.3086c-0.042969 0.125-0.089844 0.24609-0.13672 0.37109v0.003907 0.003906l-0.003906 0.015625c-0.015625 0.058594-0.027344 0.11328-0.042969 0.17188-0.015625 0.054687-0.027344 0.11328-0.042969 0.17188-0.015625 0.054688-0.03125 0.11719-0.046875 0.17969-0.019531 0.070312-0.039062 0.14453-0.058594 0.21875l-0.023437 0.085937c-0.015625 0.0625-0.035156 0.125-0.054687 0.1875l-0.03125 0.10938c-0.03125 0.10938-0.066407 0.21875-0.10156 0.32812-0.042969 0.13672-0.085937 0.26953-0.12891 0.39453-0.019531 0.0625-0.042969 0.125-0.0625 0.1875 0.16797 0.023438 0.33594 0.039063 0.50781 0.039063h0.042969c0.83984 0 1.6562-0.28125 2.3047-0.79688 0.65234-0.51953 1.0859-1.2227 1.25-2.0312 0.35937-1.7578-0.67578-3.5156-2.3633-4.168-0.078125-0.03125-0.16016-0.058594-0.24609-0.085937 0.023438 1.5508-0.23047 3.1133-0.75391 4.6094zm-43.004-20.086c0.11719 0.10156 0.25 0.20703 0.39062 0.3125 0.035157 0.027344 0.070313 0.050781 0.10547 0.078125 0.25 0.17969 0.53125 0.35938 0.83984 0.53906 0.33984 0.19922 0.71484 0.39844 1.1211 0.59766 0.09375 0.046875 0.19141 0.09375 0.28906 0.13672 0.19922 0.09375 0.40625 0.1875 0.61719 0.27734 0.089843 0.039062 0.18359 0.078124 0.27734 0.11719 0.73438 0.30859 1.5391 0.60938 2.4062 0.89844 0.73438 0.24219 1.5 0.47266 2.2969 0.6875 0.19531 0.054688 0.39453 0.10547 0.59766 0.15625 3.4531 0.89453 7.3945 1.5273 11.398 1.8203 4.207 0.27344 8.4102 0.13672 12.082-0.38281 0.22656-0.03125 0.45313-0.066406 0.67578-0.10156 0.54688-0.085938 1.0781-0.17969 1.5977-0.28516 0.089844-0.019532 0.17969-0.035156 0.26953-0.054688 0.035157-0.007812 0.066407-0.011718 0.10156-0.019531 0.12891-0.027344 0.25781-0.054687 0.38672-0.082031 0.11328-0.027344 0.22266-0.050782 0.33203-0.078125 0.058594-0.015625 0.11719-0.027344 0.17578-0.042969 0.41406-0.097656 0.8125-0.20312 1.1953-0.3125 0.10156-0.027344 0.19922-0.058594 0.30078-0.085938 0.10547-0.03125 0.21094-0.0625 0.3125-0.097656l0.15234-0.046875c0.35156-0.11328 0.6875-0.23047 1-0.34766 0.042969-0.015625 0.082032-0.03125 0.12109-0.046875 0.14062-0.054688 0.27734-0.10938 0.40625-0.16406 0.082032-0.035157 0.16016-0.066407 0.23438-0.10156 0.09375-0.042969 0.18359-0.082031 0.27344-0.125 0.0625-0.03125 0.125-0.058594 0.1875-0.089844 0.046875-0.023437 0.089843-0.046875 0.13672-0.070312 0.042968-0.023438 0.089843-0.046875 0.13281-0.070313 0.03125-0.015625 0.0625-0.035156 0.09375-0.050781 0.011719-0.007813 0.023438-0.011719 0.03125-0.019531 0.042969-0.023438 0.082031-0.046875 0.125-0.070313 0.050781-0.03125 0.097656-0.058593 0.14844-0.089843 0.007812-0.003907 0.019531-0.011719 0.027343-0.015626 0.058594-0.035156 0.11328-0.070312 0.16797-0.10547 0.25781-0.17188 0.47656-0.34375 0.65234-0.51953 0.070312-0.070312 0.13672-0.14062 0.19141-0.21484 0.33203-0.41797 0.26953-0.67188 0.24609-0.75391l-0.023438-0.082031c-0.16797-0.48438-0.33984-0.97266-0.51172-1.4648-0.19531-0.5625-0.39453-1.1328-0.59375-1.7109-0.63281-1.8242-1.2773-3.6992-1.9258-5.6133l-3.8359 1.3672-1.668 0.59766-1.1875 0.42188-11.309 4.0352-0.011718-0.003906-9.3633-4.7422-1.0781-0.54688-1.9062-0.96484-5.1406-2.6055c-1.5156 3.0664-2.9336 5.875-4.3203 8.5625l-0.011719 0.023438-0.023437 0.058594c-0.03125 0.074218-0.12109 0.29297 0.11719 0.69922 0.15234 0.25391 0.38672 0.52344 0.70312 0.79297zm-0.76172 15.422c-0.14844 0.039063-0.28906 0.082032-0.42969 0.13672-1.6875 0.65234-2.7227 2.4102-2.3633 4.168 0.16406 0.8125 0.59766 1.5156 1.25 2.0312 0.64453 0.51562 1.4648 0.79688 2.3047 0.79688h0.042968c0.16797 0 0.33984-0.015625 0.50781-0.039063-0.015625-0.046875-0.03125-0.09375-0.046875-0.13672-0.023438-0.070313-0.050782-0.14453-0.074219-0.21875-0.019531-0.0625-0.042969-0.125-0.058594-0.18359-0.027343-0.085938-0.054687-0.17969-0.085937-0.26953-0.019532-0.0625-0.039063-0.125-0.058594-0.19141-0.019531-0.058594-0.035156-0.12109-0.054688-0.18359-0.019531-0.0625-0.039062-0.13281-0.054687-0.19922-0.011719-0.039063-0.023437-0.078125-0.03125-0.11719-0.015625-0.0625-0.035156-0.12891-0.050781-0.19922-0.015625-0.0625-0.03125-0.12109-0.046875-0.18359-0.015625-0.058594-0.03125-0.11719-0.042969-0.17969l-0.042969-0.19141c-0.019531-0.082031-0.039062-0.16016-0.054687-0.24219-0.015625-0.070312-0.03125-0.14844-0.046875-0.22266-0.023438-0.10156-0.042969-0.20312-0.0625-0.30469-0.015625-0.085938-0.03125-0.17188-0.046875-0.25781-0.011719-0.070312-0.027344-0.14453-0.039063-0.21875-0.007812-0.042968-0.015625-0.082031-0.023437-0.12891-0.011719-0.070312-0.023438-0.14453-0.035156-0.21875l-0.007813-0.046875c-0.007813-0.039063-0.011719-0.078125-0.019531-0.11328-0.007813-0.042969-0.011719-0.089844-0.019532-0.13672-0.011718-0.09375-0.027343-0.1875-0.039062-0.28125-0.15625-0.80078-0.22656-1.707-0.26562-2.6719zm-15.383 2.0547c1.7305-1.1172 3.4961-2.2383 5.2617-3.3398 0.058594-0.035156 0.11719-0.058594 0.17969-0.066406 0.066407-0.95312-0.13672-1.9297-0.59766-2.8281-0.42578-0.83203-1.043-1.5234-1.7852-2.0039-0.70703-0.45703-1.4922-0.69922-2.2656-0.69922-0.60547 0-1.1797 0.14453-1.7031 0.43359-1.9727 1.0859-2.6016 3.8711-1.4023 6.207 0.42578 0.83203 1.043 1.5234 1.7852 2.0039 0.17188 0.10938 0.34375 0.20703 0.52344 0.29297h0.003906zm31.352 18.281c-1.5586-0.41797-3.0469-0.99609-4.4453-1.7188h-0.21875c-0.38281 0-0.77734-0.003906-1.1719-0.011719-0.28906-0.007813-0.58594-0.015625-0.87891-0.027344-1.4727-0.054687-2.9648-0.16797-4.4336-0.33594-3.0742-0.35156-6.1523-0.95312-9.1406-1.793l-0.35547-0.097656-0.007813-0.37891c-0.0625-2.9258-0.10938-5.7891-0.039063-8.6797v-0.0625c-1.7344-2.1641-3.3164-4.3398-4.7422-6.5195-0.19141-0.28906-0.375-0.58203-0.55859-0.87109h-0.003906c-0.0625 0.039062-0.12891 0.082031-0.19141 0.12109-1.3047 0.81641-2.6055 1.6445-3.8945 2.4688-0.3125 0.19922-0.62109 0.39844-0.92969 0.59766v0.003906c0.03125 0.085938 0.0625 0.17578 0.09375 0.26562 2.9453 8.1523 8.0742 16.238 15.09 23.859 0.085937 0.09375 0.17578 0.1875 0.26172 0.28125l0.085938-0.15234c0.32812-0.57812 0.63281-1.1992 0.61719-1.8008-0.007813-0.28125 0.20703-0.51562 0.48047-0.51953 0.27344-0.007812 0.49609 0.21484 0.50391 0.49609 0.019532 0.85938-0.35156 1.6328-0.75391 2.3438-0.12109 0.21094-0.24609 0.42188-0.375 0.62891 0.035156 0.15625 0.050782 0.32031 0.046875 0.48438-0.003906 0.125-0.003906 0.25391-0.003906 0.37891v23.742s0 0.003906 0.003906 0.003906h14.953s0.003906 0 0.003906-0.003906v-32.703zm10.93 0.37109c-0.011718 0.003906-0.019531 0.003906-0.03125 0.007812-0.25781 0.050781-0.51953 0.097656-0.78125 0.13672l-0.38281 0.6875v0.003906l-2.7773 4.9883c-0.20703 0.375-0.57812 0.59766-0.99609 0.59766-0.41797 0-0.78906-0.22266-0.99609-0.59766l-2.8281-5.0703-0.40234-0.72266c-0.19531-0.035157-0.38672-0.074219-0.57812-0.11719-0.054688-0.011719-0.11328-0.023438-0.16797-0.035156v32.461s0 0.003907 0.003906 0.003907h9.9414s0.003907 0 0.003907-0.003907v-32.332zm-7.5703 0.91797 2.4492 4.3945c0.042969 0.074218 0.10938 0.085937 0.14453 0.085937s0.10156-0.011719 0.14453-0.085937l2.418-4.3398 0.37109-0.66797c-0.11719 0.011719-0.23438 0.023437-0.35547 0.035156-0.75 0.070313-1.5078 0.10547-2.2734 0.10547-0.94141 0-1.8711-0.054688-2.7812-0.15625-0.16797-0.019531-0.33984-0.039062-0.50781-0.0625l0.38672 0.69141zm8.5-2.1484c0.92578-0.23047 1.832-0.51562 2.7109-0.86328 0.37891-0.14844 0.75391-0.30859 1.1211-0.47656 0.91016-0.41797 1.7852-0.90234 2.6211-1.4453 0.085937-0.054687 0.16797-0.10937 0.25391-0.16797 0.023437-0.015625 0.046875-0.03125 0.070313-0.046875 0.074218-0.050781 0.14844-0.10156 0.21875-0.15234 0.003906 0 0.007812-0.003906 0.007812-0.007813 0.089844-0.0625 0.17578-0.125 0.26562-0.1875s0.17578-0.12891 0.26562-0.19531c0.082031-0.0625 0.16406-0.125 0.24609-0.1875 0.011718-0.007812 0.019531-0.015625 0.03125-0.023438 0.070312-0.054687 0.13672-0.10937 0.20703-0.16406 0.023437-0.019531 0.046875-0.035156 0.070313-0.054688 0.058593-0.046874 0.11328-0.09375 0.17187-0.14062 0.027344-0.023438 0.058594-0.046876 0.085938-0.070313 0.074219-0.058594 0.14453-0.12109 0.21484-0.17969 0.0625-0.054688 0.125-0.10938 0.1875-0.16406 0.050781-0.042969 0.10156-0.089844 0.14844-0.13281 0.039063-0.035156 0.082031-0.074218 0.12109-0.10937 0.09375-0.085938 0.18359-0.17188 0.27734-0.25781 0.054687-0.050781 0.10938-0.10156 0.16016-0.15625 0.035156-0.035156 0.074219-0.070313 0.10938-0.10938 0.16016-0.16016 0.32031-0.32031 0.47656-0.48438 0.042969-0.046875 0.085938-0.089844 0.12891-0.13672 0.027343-0.03125 0.058593-0.0625 0.085937-0.09375 0.0625-0.066406 0.12109-0.13281 0.17969-0.19922 0.046875-0.050782 0.089844-0.10156 0.13281-0.15234l0.003906-0.003906c0.058594-0.066407 0.11328-0.13281 0.16797-0.19531 0.058594-0.066406 0.11328-0.13281 0.16797-0.19922 0.050781-0.0625 0.10156-0.125 0.15234-0.1875 0.12109-0.14844 0.23828-0.30078 0.35547-0.45312 0.039063-0.050781 0.078126-0.10156 0.11719-0.15234 0.10156-0.13672 0.19922-0.26953 0.29688-0.41016 0.03125-0.042969 0.0625-0.085937 0.089844-0.12891 0.074219-0.10547 0.14453-0.21484 0.21484-0.32031 0.035157-0.054687 0.070313-0.10547 0.10547-0.16016 0.03125-0.050781 0.066407-0.10156 0.097657-0.15234 0.007812-0.011718 0.015624-0.027343 0.023437-0.039062 0.054687-0.085938 0.10938-0.17188 0.16016-0.25781 0.011719-0.019532 0.023438-0.039063 0.035157-0.054688 0.027343-0.042969 0.050781-0.085938 0.078124-0.12891 0.003907-0.011719 0.011719-0.019532 0.019532-0.03125 0.03125-0.050782 0.058594-0.10156 0.089844-0.15234 0.039062-0.066406 0.078124-0.13281 0.11719-0.20312 0.035156-0.058594 0.070313-0.12109 0.10156-0.18359 0.10156-0.17969 0.19922-0.36328 0.29297-0.54688 0.03125-0.058594 0.058594-0.11719 0.089844-0.17188 0.003906-0.007812 0.007812-0.019531 0.011719-0.027343 0 0 0-0.003907 0.003906-0.003907 0.007813-0.011719 0.011719-0.027343 0.019531-0.039062 0.03125-0.066407 0.0625-0.13281 0.09375-0.19922 0.035156-0.074219 0.066406-0.14453 0.10156-0.21484 0.042969-0.09375 0.082031-0.17969 0.12109-0.26953 0.035157-0.082031 0.070313-0.16406 0.10547-0.24219 0.035157-0.082032 0.070313-0.16406 0.10156-0.24609 0.027344-0.066406 0.050781-0.12891 0.074218-0.19141 0.023438-0.054688 0.042969-0.11328 0.066407-0.16797l0.09375-0.25c0.019531-0.058594 0.042969-0.12109 0.066406-0.18359l0.003906-0.007813c0.015625-0.042968 0.03125-0.085937 0.046875-0.12891 0.03125-0.085937 0.058594-0.16797 0.085938-0.25 0.039062-0.11719 0.082031-0.24219 0.12109-0.375 0.03125-0.10156 0.0625-0.20703 0.09375-0.30859l0.03125-0.10937c0.019531-0.070313 0.039062-0.13672 0.058593-0.20703l0.015625-0.046875c0.019532-0.070312 0.039063-0.14453 0.058594-0.21484 0.011719-0.042969 0.023438-0.085938 0.035156-0.12891 0.003906-0.011719 0.007813-0.027343 0.011719-0.039062 0.015625-0.058594 0.027344-0.11328 0.042969-0.16797s0.027344-0.10938 0.039062-0.16406l0.003906-0.015626c0.042969-0.18359 0.085938-0.36719 0.125-0.53906 0.003907-0.019531 0.007813-0.039062 0.011719-0.058594 0.007813-0.039062 0.015625-0.078125 0.023438-0.11719l0.003906-0.011719c0.003906-0.019531 0.007813-0.039062 0.011719-0.058594l0.007812-0.039062c0.003906-0.019532 0.007813-0.039063 0.011719-0.058594-0.058594-0.10938-0.11719-0.21875-0.17578-0.32422-0.13672-0.25-0.26562-0.48828-0.34375-0.68359-0.38672-0.92969-0.76953-1.7734-1.1602-2.582-1.6211-3.3516-3.4453-6.0977-5.5781-8.3984-0.26953-0.28906-0.58984-0.59375-1.0156-0.95312-0.10938-0.09375-0.22656-0.1875-0.33984-0.28125-1.7031 0.27734-3.4297 0.44141-5.1523 0.54297-6.8281 0.40234-13.73-0.23828-20.332-2.0742-0.089844 0.078125-0.17578 0.15234-0.26172 0.22656-1.0938 0.94531-2.0312 1.8398-2.8672 2.7305-2.1367 2.2812-3.6875 4.6719-4.6016 7.1055 0 0.12109 0.003906 0.23828 0.003906 0.35547 0 0.078126 0.003906 0.15234 0.007813 0.23047 0 0.058594 0.003906 0.11719 0.003906 0.17578 0 0.054688 0.003906 0.10938 0.007813 0.16406 0.003906 0.082031 0.007812 0.16406 0.011718 0.24609 0.003906 0.097656 0.011719 0.19531 0.015625 0.29688 0.007813 0.089844 0.011719 0.17969 0.019531 0.26953 0.007813 0.089844 0.015626 0.17969 0.023438 0.26953s0.015625 0.17969 0.023438 0.26562c0.007812 0.089844 0.019531 0.17578 0.027343 0.26562 0.007813 0.070313 0.015625 0.14453 0.023438 0.21484 0.023437 0.18359 0.046875 0.36328 0.074219 0.54297 0.003906 0.042969 0.011718 0.085937 0.019531 0.12891 0.007812 0.050781 0.015625 0.10156 0.023437 0.15234 0.011719 0.070312 0.023438 0.14062 0.035156 0.21484 0.007813 0.039063 0.011719 0.078126 0.019532 0.11719 0.011718 0.070312 0.023437 0.14062 0.039062 0.21484 0.015625 0.082031 0.03125 0.16406 0.046875 0.24609 0.019531 0.097656 0.039063 0.19531 0.058594 0.29687 0.015625 0.074219 0.03125 0.14453 0.046875 0.21875 0.015625 0.074219 0.035156 0.15234 0.050781 0.22656 0.015625 0.0625 0.027344 0.125 0.042969 0.18359 0.011719 0.058593 0.027344 0.11328 0.042969 0.17188s0.027343 0.11719 0.042969 0.17578c0.015624 0.066406 0.035156 0.12891 0.050781 0.19531 0.011719 0.035156 0.019531 0.074218 0.03125 0.10937 0.019531 0.066407 0.035156 0.12891 0.054687 0.19531 0.015625 0.058594 0.03125 0.11328 0.050782 0.17188 0.019531 0.0625 0.035156 0.125 0.054687 0.1875 0.027344 0.085938 0.054687 0.17578 0.082031 0.26172 0.019532 0.058593 0.039063 0.11719 0.054688 0.17578 0.023437 0.070312 0.046875 0.13672 0.070312 0.20703 0.023438 0.070313 0.046875 0.13672 0.070313 0.20703 0.023437 0.066407 0.046875 0.13281 0.070312 0.19531 0.007813 0.023437 0.015625 0.046875 0.023438 0.066406 0.042969 0.11328 0.082031 0.22266 0.125 0.33594 0.019531 0.046875 0.039062 0.097656 0.054687 0.14453 0.027344 0.0625 0.050782 0.12891 0.078125 0.19141 0.0625 0.15234 0.125 0.30078 0.1875 0.44922 0.03125 0.074219 0.066407 0.14844 0.097657 0.22266s0.066406 0.14844 0.10156 0.22266c0.03125 0.066406 0.058594 0.12891 0.089844 0.19531 0.007812 0.011719 0.011718 0.027344 0.019531 0.042969 0.023437 0.046875 0.046875 0.09375 0.070313 0.14062 0.03125 0.0625 0.058593 0.125 0.089843 0.18359 0.027344 0.054687 0.054688 0.11328 0.085938 0.16797 0.035156 0.074219 0.074219 0.14453 0.11328 0.21875 0 0.003906 0.003906 0.003906 0.003906 0.007813 0.03125 0.0625 0.066406 0.125 0.097656 0.1875 0.050782 0.09375 0.10156 0.1875 0.15234 0.28125 0.03125 0.054687 0.058594 0.10547 0.089844 0.15625 0.070312 0.12109 0.14062 0.23828 0.21094 0.35938 0.03125 0.050781 0.058593 0.097656 0.089843 0.14453 0.027344 0.046875 0.058594 0.09375 0.085938 0.14062 0.003906 0.007812 0.007812 0.011719 0.011719 0.019531 0.039062 0.066407 0.082031 0.12891 0.125 0.19531 0.003906 0.003906 0.007812 0.007812 0.007812 0.015625 0.035156 0.054687 0.074219 0.11328 0.10938 0.17188 0.035156 0.054687 0.074219 0.10938 0.10938 0.16406 0.03125 0.046875 0.0625 0.09375 0.097656 0.14062 0 0 0.003906 0.003907 0.003906 0.003907 0.042969 0.066406 0.089844 0.12891 0.13672 0.19141 0.035157 0.050781 0.070313 0.10156 0.10547 0.14844 0.042969 0.058594 0.085938 0.11719 0.12891 0.17578 0.027344 0.035157 0.050782 0.070313 0.078125 0.10938 0.035157 0.046874 0.074219 0.097656 0.10938 0.14453 0.046875 0.0625 0.097656 0.125 0.14453 0.19141 0.050781 0.0625 0.097656 0.125 0.14844 0.1875 0.0625 0.074219 0.12109 0.15234 0.18359 0.22656 0.039062 0.050781 0.082031 0.097656 0.12109 0.14453 0.17188 0.20703 0.35156 0.40625 0.53125 0.60547 0.089844 0.097656 0.17969 0.19531 0.27344 0.28906 0.054688 0.058594 0.11328 0.11719 0.16797 0.17188 0.050781 0.050781 0.10156 0.10547 0.15234 0.15625 0.050782 0.050781 0.10156 0.10156 0.15625 0.15234 0.003907 0.003906 0.007813 0.007812 0.011719 0.007812 0.050781 0.050781 0.10547 0.10156 0.15625 0.15234 0.066407 0.0625 0.12891 0.125 0.19531 0.1875 0.058594 0.054687 0.11719 0.10938 0.17969 0.16406 0.0625 0.054687 0.12109 0.10937 0.18359 0.16406 0.14062 0.125 0.28516 0.25 0.42969 0.37109 0.082032 0.066406 0.16016 0.13672 0.24609 0.19922 0.0625 0.050782 0.125 0.10156 0.19141 0.15234 0.007813 0.003906 0.011719 0.007813 0.019532 0.011719 0.0625 0.046875 0.12109 0.097656 0.18359 0.14453 0.17187 0.13281 0.34375 0.26172 0.52344 0.38672 0.066406 0.046875 0.13281 0.09375 0.19922 0.14062 0.085937 0.058594 0.16797 0.11719 0.25391 0.17578 0.15234 0.10547 0.30859 0.20703 0.46484 0.30469 0.078125 0.050781 0.16016 0.10156 0.24219 0.15234 0.082031 0.050782 0.16406 0.10156 0.24609 0.14844 0.082031 0.050781 0.16406 0.097656 0.24609 0.14453 0.058593 0.03125 0.11328 0.066407 0.17188 0.097657 0.035156 0.019531 0.074218 0.042968 0.10938 0.0625 0.074219 0.042968 0.14844 0.082031 0.22266 0.12109 0.32422 0.17578 0.65625 0.34375 0.98828 0.50391 0.35547 0.16797 0.71875 0.32812 1.0898 0.48047 0.80859 0.32812 1.6406 0.60938 2.4883 0.83984 0.31641 0.085938 0.63672 0.16797 0.96094 0.23828 0.16797 0.039063 0.33203 0.074219 0.50391 0.10547 0.40625 0.082031 0.81641 0.15234 1.2266 0.21094 1.1055 0.16016 2.2344 0.23828 3.3828 0.23828 0.96875 0 1.9297-0.058594 2.8672-0.17188 0.40625-0.050782 0.80859-0.10938 1.2109-0.17969 0.1875-0.03125 0.37109-0.066406 0.55469-0.10547 0.32422-0.066407 0.64453-0.13672 0.96094-0.21484zm30.082-16.43v-0.003906c-0.30078-0.20703-0.60547-0.41797-0.91016-0.625-1.2617-0.86719-2.5391-1.7305-3.8203-2.5859-0.0625-0.042969-0.12891-0.085938-0.19141-0.12891h-0.003906c-0.19141 0.28516-0.38672 0.57031-0.58594 0.85156-1.0703 1.5352-2.2227 3.0664-3.4531 4.5898 0.046875 0.88672 0.085938 1.8086 0.10547 2.7773 0.070312 2.8906 0.019531 5.7578-0.039062 8.6797l-0.007813 0.37891-0.35547 0.097656c-2.9922 0.83984-6.0703 1.4414-9.1406 1.793-1.8281 0.21094-3.6836 0.33203-5.5117 0.36328-0.32031 0.003907-0.64453 0.007813-0.96484 0.011719h-0.09375c-0.38672 0-0.77344-0.003906-1.1602-0.011719l-0.125-0.003906c-1.2031 0.52734-2.4648 0.94922-3.7734 1.2617v32.547s0 0.003906 0.003906 0.003906h14.953s0.003906 0 0.003906-0.003906v-23.742c0-0.63672-0.03125-1.2734-0.097656-1.8984-0.003906-0.039063-0.007812-0.082032-0.011718-0.12109-0.003907-0.054688-0.011719-0.10547-0.011719-0.16016-0.042969-0.070313-0.085938-0.13672-0.12891-0.20703-0.12891-0.20703-0.25391-0.41797-0.375-0.62891-0.40234-0.71094-0.77344-1.4844-0.75391-2.3438 0.007813-0.28125 0.23047-0.50391 0.50391-0.49609 0.26953 0.007813 0.48438 0.24219 0.48047 0.51953-0.015625 0.59375 0.28125 1.207 0.60547 1.7773 0.066406-0.11719 0.14062-0.22656 0.22656-0.33203 0.039063-0.046875 0.078126-0.089844 0.11719-0.13672 0.003906-0.003907 0.003906-0.003907 0.007812-0.007813 6.5469-6.9883 11.434-14.414 14.41-21.961 0.035156-0.085938 0.066406-0.17188 0.10156-0.26172zm3.3281-6.8047c-0.24219-1.1562-0.88281-2.0938-1.8047-2.6367-0.55078-0.32422-1.1562-0.48828-1.8047-0.48828-0.75781 0-1.5273 0.23047-2.2227 0.66406-0.73047 0.45703-1.3477 1.1172-1.7891 1.9141-0.49609 0.90234-0.71484 1.8828-0.67578 2.8086 0.0625 0.011719 0.12109 0.035157 0.17578 0.074219 1.7305 1.1523 3.4648 2.3281 5.1602 3.5h0.003907c0.19922-0.085937 0.39453-0.19141 0.58594-0.30859 0.73047-0.45703 1.3477-1.1172 1.7852-1.9141 0.62109-1.1328 0.82813-2.4141 0.57813-3.6094zm-13-4.2109 0.86328 0.046875c0.75 0.039063 1.3398-0.55859 1.2969-1.2773l-0.30859-5.3555c0.042969-0.074219 0.074219-0.15234 0.09375-0.23828l0.019532-0.085938c0.085937-0.41406-0.17969-0.82031-0.59375-0.93359-0.050782-3.2969-0.33203-5.9219-0.875-8.207-0.39062-1.6484-0.86328-3.2227-2.2734-4.3789-1.293-1.0547-3.0469-1.3867-4.457-1.6523l-17.211-3.2461c0.011718-0.77734-0.61719-1.4375-1.4414-1.4883-0.84766-0.054688-1.582 0.5625-1.6406 1.375-0.054687 0.8125 0.58984 1.5156 1.4375 1.5664 0.48828 0.03125 0.9375-0.16016 1.2461-0.48438l17.398 3.2812c1.3555 0.25391 2.8867 0.54297 3.9688 1.4258 1.1641 0.94922 1.5625 2.293 1.9258 3.8242 0.52344 2.1953 0.79297 4.7266 0.84766 7.9062-0.25391 0.097657-0.45312 0.3125-0.51172 0.58984l-0.019531 0.085937c-0.035156 0.16016-0.015625 0.31641 0.046875 0.46094l-0.95312 5.3711c-0.125 0.71094 0.39062 1.3711 1.1406 1.4102zm-32.332 9.4258c0 1.3984-0.75391 2.5312-1.6875 2.5312-0.93359 0-1.6875-1.1328-1.6875-2.5312 0-1.3984 0.75391-2.5312 1.6875-2.5312 0.93359 0 1.6875 1.1328 1.6875 2.5312zm-0.67969-1.2539c0-0.22656-0.17969-0.41406-0.39844-0.41406s-0.39844 0.18359-0.39844 0.41406c0 0.22656 0.17969 0.41406 0.39844 0.41406s0.39844-0.18359 0.39844-0.41406zm14.891 3.7812c-0.93359 0-1.6875-1.1328-1.6875-2.5312 0-1.3984 0.75391-2.5312 1.6875-2.5312s1.6875 1.1328 1.6875 2.5312c0 1.3984-0.75391 2.5312-1.6875 2.5312zm0.67188-3.3672c0.21875 0 0.39844-0.18359 0.39844-0.41406 0-0.22656-0.17969-0.41406-0.39844-0.41406s-0.39844 0.18359-0.39844 0.41406c0 0.22656 0.17969 0.41406 0.39844 0.41406z"/>
<text x="0.0" y="117.5" font-size="5.0" font-weight="bold" font-family="Arbeit Regular, Helvetica, Arial-Unicode, Arial, Sans-serif" fill="#000000">Created by &#51648;&#50528; &#51221;</text><text x="0.0" y="122.5" font-size="5.0" font-weight="bold" font-family="Arbeit Regular, Helvetica, Arial-Unicode, Arial, Sans-serif" fill="#000000">from Noun Project</text></svg>