<svg xmlns="http://www.w3.org/2000/svg" version="1.1" viewBox="-5.0 -10.0 110.0 135.0">
 <path d="m78.555 34.277c-1.0547 0-2.1055 0.10938-3.1445 0.32422-0.36719-3.5781-1.668-6.9531-3.8203-9.875-6.625-8.9922-19.332-10.918-28.328-4.293-2.5977 1.9141-4.6836 4.4102-6.1094 7.293-3.4297-1.3672-7.3359-0.89844-10.395 1.3516-1.8789 1.3828-3.2305 3.2891-3.9062 5.4805-0.46875-0.042969-0.9375-0.0625-1.4023-0.0625-8.6602 0.003906-15.699 7.043-15.699 15.699 0 7.3828 5.2344 13.84 12.445 15.359 0.94922 0.19922 1.875-0.40625 2.0742-1.3516s-0.40625-1.875-1.3516-2.0742c-5.6016-1.1797-9.668-6.1992-9.668-11.934 0-6.7266 5.4688-12.195 12.195-12.195 0.80078 0 1.6094 0.082031 2.4062 0.23828l1.8164 0.36328 0.26172-1.832c0.28125-1.9648 1.3125-3.6953 2.9023-4.8672 2.4375-1.7969 5.6758-1.9141 8.25-0.29688l1.8047 1.1367 0.75781-1.9922c1.1484-3.0039 3.1172-5.5977 5.6914-7.4922 7.4375-5.4805 17.953-3.8906 23.43 3.5508 2.1562 2.9258 3.2773 6.4062 3.2461 10.066l-0.023438 2.5273 2.375-0.86719c1.3672-0.5 2.7773-0.75391 4.1875-0.75391 6.7266 0 12.195 5.4688 12.195 12.195 0 6.7266-5.4688 12.195-12.195 12.195-0.81641 0-1.6328-0.082031-2.4297-0.24219-0.94141-0.19531-1.8672 0.42187-2.0625 1.3672-0.19141 0.94922 0.42188 1.8711 1.3672 2.0625 1.0234 0.20703 2.0742 0.3125 3.125 0.3125 8.6562 0 15.695-7.0391 15.695-15.695 0.003906-8.6562-7.0352-15.699-15.691-15.699z"/>
 <path d="m34.871 56.535c-0.85156-0.46484-1.9102-0.15234-2.375 0.69531l-7.082 12.969c-0.46094 0.84766-0.15234 1.9102 0.69531 2.375 0.26562 0.14453 0.55469 0.21484 0.83594 0.21484 0.61719 0 1.2188-0.32812 1.5391-0.91016l7.082-12.969c0.46484-0.84766 0.15234-1.9102-0.69531-2.375z"/>
 <path d="m46.621 56.539c-0.84766-0.46094-1.9102-0.15625-2.375 0.69531l-12.977 23.688c-0.46484 0.84766-0.15234 1.9102 0.69531 2.375 0.26562 0.14453 0.55469 0.21484 0.83984 0.21484 0.61719 0 1.2188-0.32812 1.5352-0.91016l12.977-23.688c0.46484-0.84766 0.15234-1.9141-0.69531-2.375z"/>
 <path d="m58.355 56.531c-0.85156-0.45703-1.9141-0.13672-2.3672 0.71875l-6.9336 12.969c-0.45703 0.85156-0.13281 1.9141 0.71875 2.3672 0.26172 0.14062 0.54687 0.20703 0.82422 0.20703 0.625 0 1.2305-0.33594 1.5469-0.92578l6.9336-12.969c0.45312-0.85156 0.13281-1.9141-0.72266-2.3672z"/>
 <path d="m70.348 56.539c-0.84375-0.46484-1.9102-0.15625-2.3789 0.6875l-13.051 23.691c-0.46484 0.84766-0.15625 1.9102 0.6875 2.3789 0.26562 0.14844 0.55859 0.21875 0.84375 0.21875 0.61719 0 1.2148-0.32812 1.5352-0.90625l13.051-23.688c0.46484-0.85156 0.16016-1.9141-0.6875-2.3828z"/>
<text x="0.0" y="117.5" font-size="5.0" font-weight="bold" font-family="Arbeit Regular, Helvetica, Arial-Unicode, Arial, Sans-serif" fill="#000000">Created by Y</text><text x="0.0" y="122.5" font-size="5.0" font-weight="bold" font-family="Arbeit Regular, Helvetica, Arial-Unicode, Arial, Sans-serif" fill="#000000">from Noun Project</text></svg>